<svg xmlns="http://www.w3.org/2000/svg" width="140" height="126" viewBox="0 0 140 126"><path d="M16 88L54 66 83 43 109 51 95 70 54 66" fill="none" stroke="#d9d6ed" stroke-width="1"/><path d="M13 77Q42 28 92 43L105 35 112 51 132 61 123 66 108 60Q83 82 54 81L50 100 40 90 47 76 31 75Q23 99 7 99L13 77 3 68Q13 67 21 74M60 47L67 29 84 43M69 72Q79 95 97 86M107 54L111 54" fill="none" stroke="#e9cfa1" stroke-width="1.3" opacity=".65"/><circle cx="16" cy="88" r="2" fill="#fff1c7"/><circle cx="16" cy="88" r="4.7" fill="#ffebb7" opacity=".13"/><circle cx="54" cy="66" r="2" fill="#fff1c7"/><circle cx="54" cy="66" r="4.7" fill="#ffebb7" opacity=".13"/><circle cx="83" cy="43" r="2" fill="#fff1c7"/><circle cx="83" cy="43" r="4.7" fill="#ffebb7" opacity=".13"/><circle cx="109" cy="51" r="2" fill="#fff1c7"/><circle cx="109" cy="51" r="4.7" fill="#ffebb7" opacity=".13"/><circle cx="95" cy="70" r="2" fill="#fff1c7"/><circle cx="95" cy="70" r="4.7" fill="#ffebb7" opacity=".13"/></svg>